<?xml version="1.0" encoding="UTF-8" standalone="no"?>
<svg
   xmlns:dc="http://purl.org/dc/elements/1.1/"
   xmlns:cc="http://creativecommons.org/ns#"
   xmlns:rdf="http://www.w3.org/1999/02/22-rdf-syntax-ns#"
   xmlns:svg="http://www.w3.org/2000/svg"
   xmlns="http://www.w3.org/2000/svg"
   xmlns:sodipodi="http://sodipodi.sourceforge.net/DTD/sodipodi-0.dtd"
   xmlns:inkscape="http://www.inkscape.org/namespaces/inkscape"
   version="1.1"
   id="svg2"
   xml:space="preserve"
   width="1600"
   height="1066.6667"
   viewBox="0 0 1600 1066.6667"
   sodipodi:docname="image-from-rawpixel-id-3031028-original.eps"><metadata
     id="metadata8"><rdf:RDF><cc:Work
         rdf:about=""><dc:format>image/svg+xml</dc:format><dc:type
           rdf:resource="http://purl.org/dc/dcmitype/StillImage" /></cc:Work></rdf:RDF></metadata><defs
     id="defs6" /><sodipodi:namedview
     pagecolor="#ffffff"
     bordercolor="#666666"
     borderopacity="1"
     objecttolerance="10"
     gridtolerance="10"
     guidetolerance="10"
     inkscape:pageopacity="0"
     inkscape:pageshadow="2"
     inkscape:window-width="640"
     inkscape:window-height="480"
     id="namedview4" /><g
     id="g10"
     inkscape:groupmode="layer"
     inkscape:label="ink_ext_XXXXXX"
     transform="matrix(1.3333333,0,0,-1.3333333,0,1066.6667)"><g
       id="g12"
       transform="scale(0.1)"><path
         d="M 12000,8000 V 0 H 0 v 8000 h 12000"
         style="fill:#ff9ec0;fill-opacity:1;fill-rule:nonzero;stroke:none"
         id="path14" /><path
         d="m 3909.15,6559.13 c 232.48,-169.77 474.26,-324.18 718.16,-470.07 766.55,-458.52 1593.21,-850.24 2451.87,-854.46 554.39,-2.73 1099.27,156.72 1653.56,160.08 554.29,3.36 1162.53,-192.14 1475.06,-722.76 55.5,-94.31 101,-199.99 109.5,-312.57 15.6,-204.4 -92.1,-393.12 -219.2,-534.74 C 9679.5,3358.33 9056.31,3242.56 8534.03,2940.91 7743.44,2484.27 7209.91,1618.73 6695.77,794.672 6440.58,385.641 6155.3,-44.2188 5735.91,-197.93 5408.16,-318.051 5050.49,-248.66 4709.06,-178.281 4278.68,-89.5703 3848.29,-0.859375 3417.91,87.8594 2748.54,225.832 2063.46,370.238 1472.12,762.16 880.777,1154.08 392.344,1850.45 386.82,2627.04 c -1.972,277.17 56.485,553.39 26.457,829 -88.437,811.5 -693.902,1033.34 -1021.695,1629.13 -899.932,1635.69 933.023,4983.23 2623.118,3488.23 387.3,-342.58 668.17,-816.18 1012.14,-1215.04 264.54,-306.74 564.74,-567.32 882.31,-799.23"
         style="fill:#d6c2e4;fill-opacity:1;fill-rule:nonzero;stroke:none"
         id="path16" /><path
         d="m -409.297,479.828 c -429.226,744.942 -534.531,1653.842 -57.484,2405.072 231.883,365.16 632.801,700.14 1054.773,605.03 146.512,-33.02 276.559,-114.9 403.348,-195.4 524.74,-333.16 1049.49,-666.33 1574.23,-999.5 229.97,-146 465.76,-297.41 624.55,-518.73 C 3521.27,1314.77 3396.72,665.672 3052.87,248.949 2597.29,-303.188 1765.33,-356.328 1103.54,-480.48 929.195,-513.18 747.75,-543.148 576.266,-497.73 417.594,-455.711 282.227,-352.641 162.344,-240.52 -61.6367,-31.0391 -256.098,213.961 -409.297,479.828"
         style="fill:#f5c84e;fill-opacity:1;fill-rule:nonzero;stroke:none"
         id="path18" /><path
         d="m 12985.5,9049.52 c -319.2,173.61 -642.2,345.71 -960.6,542.31 -930.5,574.47 -1899.8,1083.97 -2955.48,1386.17 -490.7,140.5 -998.71,245 -1508.41,218 -888.58,-47.1 -1779.84,-605.9 -2211.4,-1387.75 C 5105.87,9366.69 4968.74,8951.6 4645.83,8542.87 4328.96,8141.78 3967.34,7774.81 3717.5,7324.58 3284.88,6544.97 3261.95,5536.86 3714.06,4768.38 4166.16,3999.9 5098.38,3524.65 5978.09,3669.8 c 326.3,53.85 634.14,184.19 949.25,284.59 699.01,222.72 1431.2,294.79 2160.13,337.07 707.99,41.06 1091.63,-246.47 1764.53,-393.55 630.1,-137.71 1283.3,-217.72 1928,-160.06 769.8,68.83 1540.8,353.73 2082.2,905.17 541.4,551.44 815,1391.95 581,2128.47 -151.3,476.44 -491.2,869.56 -858.1,1209.17 -491.1,454.74 -1039.5,764.14 -1599.6,1068.86"
         style="fill:#f74a4b;fill-opacity:1;fill-rule:nonzero;stroke:none"
         id="path20" /><path
         d="M 7135.96,5102.81 C 6674.49,4339.05 6322.02,3488.67 5682.93,2865.92 5457.97,2646.7 5175.42,2451.68 4861.38,2458.11 c -464.64,9.51 -802.54,440.04 -1234.92,610.43 -429.98,169.44 -920.95,66.62 -1346.49,-113.7 C 1745.43,2728.36 1222.06,2320.94 1130.78,1747.62 1066.14,1341.61 1237.87,923.84 1510.54,616.141 1783.2,308.461 2147.45,96.832 2519.62,-77.8281 3230.26,-411.328 4006.85,-630.73 4791.62,-611.75 c 529.93,12.82 1053.38,133.43 1583.44,138.059 609.08,5.32 1218.34,-142.559 1823.14,-70.247 835.38,99.879 1603.73,647.547 1970.6,1404.657 187.2,386.201 272.8,813.131 428.8,1212.951 169.8,435.42 420.9,833.51 663.1,1233.23 228.5,377.14 456.1,775.9 487.7,1215.73 59.7,829.56 -757.9,2049.9 -1558.5,2289.71 -230.46,69.02 -477.25,44.52 -716.25,17.21 C 8428.48,6710.09 7659.26,5968.92 7135.96,5102.81"
         style="fill:#0094ce;fill-opacity:1;fill-rule:nonzero;stroke:none"
         id="path22" /><path
         d="m 1128.79,3732.05 c 51.12,-31.78 100.75,-65.77 148.35,-102.74 346.56,-269.22 557.03,-672.83 757,-1063.46 147.14,-287.46 298.53,-608.82 215.77,-920.96 -659.02,480.09 -1318.047,960.19 -1977.066,1440.29 -739.032,538.37 -935.36,960.7 -1123.805,1818.23 165.078,46.07 311.328,-9.28 445.121,-124.94 126.656,-109.49 221.488,-250.94 340.7619,-368.42 327.3871,-322.47 804.0981,-435.74 1193.8681,-678"
         style="fill:#4f8058;fill-opacity:1;fill-rule:nonzero;stroke:none"
         id="path24" /><path
         d="m 12756,2323.98 c -71.1,162.04 -188.2,303.21 -348.3,373.8 -266.4,117.43 -574.9,17.58 -864.8,43.93 -337.9,30.71 -593.8,228.89 -954.5,136.14 -231.3,-59.48 -441.5,-226.07 -516.7,-452.75 -154.1,-464.32 -421.07,-922.04 -18.3,-1335.48 167.9,-172.331 386.4,-284.671 601.1,-393.19 291.5,-147.371 595.2,-296.328 921.7,-308.52 423.4,-15.801 844.8,351.051 1051.3,692.21 210.5,347.65 281.1,659.88 185,1073.67 -13.5,57.84 -32.3,115.21 -56.5,170.19"
         style="fill:#ffa03a;fill-opacity:1;fill-rule:nonzero;stroke:none"
         id="path26" /></g></g></svg>
